{
  "version": "1.1.6",
  "modules": [
    {
      "id": 1,
      "plugin": "Core",
      "version": "1.1.6",
      "model": "AudioInterface",
      "params": [],
      "rightModuleId": 7,
      "data": {
        "audio": {
          "driver": 6,
          "deviceName": "Headphones (Roam Voyager Stereo)",
          "offset": 0,
          "maxChannels": 8,
          "sampleRate": 44100,
          "blockSize": 256
        }
      },
      "pos": [
        134,
        2
      ]
    },
    {
      "id": 2,
      "plugin": "Fundamental",
      "version": "1.3.1",
      "model": "VCMixer",
      "params": [
        {
          "id": 0,
          "value": 1.0
        },
        {
          "id": 1,
          "value": 1.19218206
        },
        {
          "id": 2,
          "value": 0.886711717
        },
        {
          "id": 3,
          "value": 0.0848526582
        },
        {
          "id": 4,
          "value": 1.0
        }
      ],
      "pos": [
        117,
        2
      ]
    },
    {
      "id": 3,
      "plugin": "Fundamental",
      "version": "1.3.1",
      "model": "VCO",
      "params": [
        {
          "id": 0,
          "value": 1.0
        },
        {
          "id": 1,
          "value": 1.0
        },
        {
          "id": 2,
          "value": -35.3159981
        },
        {
          "id": 3,
          "value": 0.0
        },
        {
          "id": 4,
          "value": 0.393000007
        },
        {
          "id": 5,
          "value": 0.588200271
        },
        {
          "id": 6,
          "value": 0.0
        }
      ],
      "pos": [
        45,
        3
      ]
    },
    {
      "id": 4,
      "plugin": "Fundamental",
      "version": "1.3.1",
      "model": "VCF",
      "params": [
        {
          "id": 0,
          "value": 0.434999913
        },
        {
          "id": 1,
          "value": 0.5
        },
        {
          "id": 2,
          "value": 0.157499969
        },
        {
          "id": 3,
          "value": 0.169000134
        },
        {
          "id": 4,
          "value": 0.160500124
        }
      ],
      "pos": [
        67,
        3
      ]
    },
    {
      "id": 5,
      "plugin": "Core",
      "version": "1.1.6",
      "model": "MIDIToCVInterface",
      "params": [],
      "data": {
        "channels": 1,
        "polyMode": 0,
        "clockDivision": 24,
        "lastPitch": 8192,
        "lastMod": 80,
        "midi": {
          "driver": -11,
          "deviceName": "QWERTY keyboard (US)",
          "channel": -1
        }
      },
      "pos": [
        3,
        3
      ]
    },
    {
      "id": 6,
      "plugin": "Fundamental",
      "version": "1.3.1",
      "model": "ADSR",
      "params": [
        {
          "id": 0,
          "value": 0.205500126
        },
        {
          "id": 1,
          "value": 0.284000725
        },
        {
          "id": 2,
          "value": 0.5
        },
        {
          "id": 3,
          "value": 0.52399981
        }
      ],
      "pos": [
        78,
        3
      ]
    },
    {
      "id": 7,
      "plugin": "Fundamental",
      "version": "1.3.1",
      "model": "Scope",
      "params": [
        {
          "id": 0,
          "value": 0.0
        },
        {
          "id": 1,
          "value": 0.0
        },
        {
          "id": 2,
          "value": 0.0
        },
        {
          "id": 3,
          "value": 0.0
        },
        {
          "id": 4,
          "value": 14.0
        },
        {
          "id": 5,
          "value": 0.0
        },
        {
          "id": 6,
          "value": 0.0
        },
        {
          "id": 7,
          "value": 0.0
        }
      ],
      "leftModuleId": 1,
      "data": {
        "lissajous": 0,
        "external": 0
      },
      "pos": [
        144,
        2
      ]
    },
    {
      "id": 10,
      "plugin": "Fundamental",
      "version": "1.3.1",
      "model": "VCO",
      "params": [
        {
          "id": 0,
          "value": 1.0
        },
        {
          "id": 1,
          "value": 1.0
        },
        {
          "id": 2,
          "value": -35.3159981
        },
        {
          "id": 3,
          "value": 0.0
        },
        {
          "id": 4,
          "value": 0.393000007
        },
        {
          "id": 5,
          "value": 0.588200271
        },
        {
          "id": 6,
          "value": 0.0
        }
      ],
      "pos": [
        0,
        1
      ]
    },
    {
      "id": 12,
      "plugin": "Fundamental",
      "version": "1.3.1",
      "model": "ADSR",
      "params": [
        {
          "id": 0,
          "value": 0.0
        },
        {
          "id": 1,
          "value": 0.276000023
        },
        {
          "id": 2,
          "value": 0.800000191
        },
        {
          "id": 3,
          "value": 0.60049969
        }
      ],
      "pos": [
        44,
        1
      ]
    },
    {
      "id": 13,
      "plugin": "Fundamental",
      "version": "1.3.1",
      "model": "LFO",
      "params": [
        {
          "id": 0,
          "value": 1.0
        },
        {
          "id": 1,
          "value": 1.0
        },
        {
          "id": 2,
          "value": -0.152002528
        },
        {
          "id": 3,
          "value": 0.435000002
        },
        {
          "id": 4,
          "value": 0.0
        },
        {
          "id": 5,
          "value": 0.5
        },
        {
          "id": 6,
          "value": 0.0
        }
      ],
      "pos": [
        26,
        1
      ]
    },
    {
      "id": 14,
      "plugin": "Fundamental",
      "version": "1.3.1",
      "model": "VCF",
      "params": [
        {
          "id": 0,
          "value": 0.233999968
        },
        {
          "id": 1,
          "value": 0.5
        },
        {
          "id": 2,
          "value": 0.157499969
        },
        {
          "id": 3,
          "value": 0.169000134
        },
        {
          "id": 4,
          "value": 0.160500124
        }
      ],
      "pos": [
        14,
        1
      ]
    },
    {
      "id": 16,
      "plugin": "Fundamental",
      "version": "1.3.1",
      "model": "VCF",
      "params": [
        {
          "id": 0,
          "value": 0.35349974
        },
        {
          "id": 1,
          "value": 0.5
        },
        {
          "id": 2,
          "value": 0.157499969
        },
        {
          "id": 3,
          "value": 0.169000134
        },
        {
          "id": 4,
          "value": 0.160500124
        }
      ],
      "pos": [
        56,
        0
      ]
    },
    {
      "id": 17,
      "plugin": "Fundamental",
      "version": "1.3.1",
      "model": "ADSR",
      "params": [
        {
          "id": 0,
          "value": 0.736499667
        },
        {
          "id": 1,
          "value": 0.276000023
        },
        {
          "id": 2,
          "value": 0.805000007
        },
        {
          "id": 3,
          "value": 0.0394996516
        }
      ],
      "pos": [
        91,
        0
      ]
    },
    {
      "id": 18,
      "plugin": "Fundamental",
      "version": "1.3.1",
      "model": "VCO",
      "params": [
        {
          "id": 0,
          "value": 1.0
        },
        {
          "id": 1,
          "value": 1.0
        },
        {
          "id": 2,
          "value": -35.3159981
        },
        {
          "id": 3,
          "value": 0.0
        },
        {
          "id": 4,
          "value": 0.393000007
        },
        {
          "id": 5,
          "value": 0.588200271
        },
        {
          "id": 6,
          "value": 0.0
        }
      ],
      "pos": [
        39,
        0
      ]
    },
    {
      "id": 20,
      "plugin": "Fundamental",
      "version": "1.3.1",
      "model": "VCA-1",
      "params": [
        {
          "id": 0,
          "value": 0.73450017
        },
        {
          "id": 1,
          "value": 1.0
        }
      ],
      "pos": [
        135,
        0
      ]
    },
    {
      "id": 22,
      "plugin": "Fundamental",
      "version": "1.3.1",
      "model": "LFO",
      "params": [
        {
          "id": 0,
          "value": 1.0
        },
        {
          "id": 1,
          "value": 1.0
        },
        {
          "id": 2,
          "value": -2.4470005
        },
        {
          "id": 3,
          "value": 0.435000002
        },
        {
          "id": 4,
          "value": 0.0
        },
        {
          "id": 5,
          "value": 0.5
        },
        {
          "id": 6,
          "value": 0.0
        }
      ],
      "pos": [
        122,
        0
      ]
    },
    {
      "id": 23,
      "plugin": "Fundamental",
      "version": "1.3.1",
      "model": "LFO",
      "params": [
        {
          "id": 0,
          "value": 1.0
        },
        {
          "id": 1,
          "value": 1.0
        },
        {
          "id": 2,
          "value": 0.981996119
        },
        {
          "id": 3,
          "value": 0.435000002
        },
        {
          "id": 4,
          "value": 0.0
        },
        {
          "id": 5,
          "value": 0.5
        },
        {
          "id": 6,
          "value": 0.0
        }
      ],
      "pos": [
        111,
        0
      ]
    },
    {
      "id": 24,
      "plugin": "Fundamental",
      "version": "1.3.1",
      "model": "LFO",
      "params": [
        {
          "id": 0,
          "value": 1.0
        },
        {
          "id": 1,
          "value": 1.0
        },
        {
          "id": 2,
          "value": 0.468996435
        },
        {
          "id": 3,
          "value": 0.435000002
        },
        {
          "id": 4,
          "value": 0.0
        },
        {
          "id": 5,
          "value": 0.5
        },
        {
          "id": 6,
          "value": 0.0
        }
      ],
      "pos": [
        100,
        0
      ]
    }
  ],
  "cables": [
    {
      "id": 0,
      "outputModuleId": 5,
      "outputId": 0,
      "inputModuleId": 3,
      "inputId": 0,
      "color": "#c91847"
    },
    {
      "id": 2,
      "outputModuleId": 2,
      "outputId": 0,
      "inputModuleId": 1,
      "inputId": 0,
      "color": "#0986ad"
    },
    {
      "id": 3,
      "outputModuleId": 2,
      "outputId": 0,
      "inputModuleId": 1,
      "inputId": 1,
      "color": "#c9b70e"
    },
    {
      "id": 5,
      "outputModuleId": 5,
      "outputId": 1,
      "inputModuleId": 6,
      "inputId": 4,
      "color": "#c9b70e"
    },
    {
      "id": 6,
      "outputModuleId": 6,
      "outputId": 0,
      "inputModuleId": 2,
      "inputId": 5,
      "color": "#0c8e15"
    },
    {
      "id": 15,
      "outputModuleId": 12,
      "outputId": 0,
      "inputModuleId": 2,
      "inputId": 6,
      "color": "#0c8e15"
    },
    {
      "id": 16,
      "outputModuleId": 5,
      "outputId": 1,
      "inputModuleId": 12,
      "inputId": 4,
      "color": "#c91847"
    },
    {
      "id": 18,
      "outputModuleId": 5,
      "outputId": 0,
      "inputModuleId": 10,
      "inputId": 0,
      "color": "#c9b70e"
    },
    {
      "id": 24,
      "outputModuleId": 13,
      "outputId": 0,
      "inputModuleId": 12,
      "inputId": 2,
      "color": "#c91847"
    },
    {
      "id": 28,
      "outputModuleId": 10,
      "outputId": 0,
      "inputModuleId": 14,
      "inputId": 3,
      "color": "#c91847"
    },
    {
      "id": 37,
      "outputModuleId": 5,
      "outputId": 1,
      "inputModuleId": 17,
      "inputId": 4,
      "color": "#0986ad"
    },
    {
      "id": 36,
      "outputModuleId": 18,
      "outputId": 3,
      "inputModuleId": 16,
      "inputId": 3,
      "color": "#c91847"
    },
    {
      "id": 40,
      "outputModuleId": 17,
      "outputId": 0,
      "inputModuleId": 20,
      "inputId": 1,
      "color": "#c91847"
    },
    {
      "id": 45,
      "outputModuleId": 23,
      "outputId": 0,
      "inputModuleId": 22,
      "inputId": 0,
      "color": "#c91847"
    },
    {
      "id": 46,
      "outputModuleId": 24,
      "outputId": 3,
      "inputModuleId": 23,
      "inputId": 0,
      "color": "#0986ad"
    },
    {
      "id": 41,
      "outputModuleId": 20,
      "outputId": 0,
      "inputModuleId": 2,
      "inputId": 7,
      "color": "#0986ad"
    },
    {
      "id": 34,
      "outputModuleId": 16,
      "outputId": 1,
      "inputModuleId": 2,
      "inputId": 3,
      "color": "#0986ad"
    },
    {
      "id": 47,
      "outputModuleId": 2,
      "outputId": 0,
      "inputModuleId": 7,
      "inputId": 0,
      "color": "#0986ad"
    },
    {
      "id": 50,
      "outputModuleId": 5,
      "outputId": 6,
      "inputModuleId": 6,
      "inputId": 5,
      "color": "#0c8e15"
    },
    {
      "id": 29,
      "outputModuleId": 14,
      "outputId": 0,
      "inputModuleId": 2,
      "inputId": 2,
      "color": "#0986ad"
    },
    {
      "id": 42,
      "outputModuleId": 22,
      "outputId": 1,
      "inputModuleId": 20,
      "inputId": 0,
      "color": "#c9b70e"
    },
    {
      "id": 10,
      "outputModuleId": 3,
      "outputId": 2,
      "inputModuleId": 4,
      "inputId": 3,
      "color": "#c91847"
    },
    {
      "id": 26,
      "outputModuleId": 4,
      "outputId": 0,
      "inputModuleId": 2,
      "inputId": 1,
      "color": "#c9b70e"
    },
    {
      "id": 38,
      "outputModuleId": 5,
      "outputId": 0,
      "inputModuleId": 18,
      "inputId": 0,
      "color": "#c9b70e"
    }
  ]
}