{
  "version": "1.1.6",
  "modules": [
    {
      "id": 1,
      "plugin": "Core",
      "version": "1.1.6",
      "model": "AudioInterface",
      "params": [],
      "leftModuleId": 7,
      "data": {
        "audio": {
          "driver": 6,
          "deviceName": "CABLE Input (VB-Audio Virtual Cable)",
          "offset": 0,
          "maxChannels": 8,
          "sampleRate": 44100,
          "blockSize": 256
        }
      },
      "pos": [
        134,
        0
      ]
    },
    {
      "id": 2,
      "plugin": "Fundamental",
      "version": "1.3.1",
      "model": "VCMixer",
      "params": [
        {
          "id": 0,
          "value": 1.0
        },
        {
          "id": 1,
          "value": 0.736956239
        },
        {
          "id": 2,
          "value": 0.755190015
        },
        {
          "id": 3,
          "value": 0.1726854
        },
        {
          "id": 4,
          "value": 1.0
        }
      ],
      "rightModuleId": 7,
      "pos": [
        111,
        0
      ]
    },
    {
      "id": 3,
      "plugin": "Fundamental",
      "version": "1.3.1",
      "model": "VCO",
      "params": [
        {
          "id": 0,
          "value": 1.0
        },
        {
          "id": 1,
          "value": 1.0
        },
        {
          "id": 2,
          "value": -28.8360023
        },
        {
          "id": 3,
          "value": 0.0
        },
        {
          "id": 4,
          "value": 0.0
        },
        {
          "id": 5,
          "value": 0.5
        },
        {
          "id": 6,
          "value": 0.0
        }
      ],
      "pos": [
        28,
        1
      ]
    },
    {
      "id": 4,
      "plugin": "Fundamental",
      "version": "1.3.1",
      "model": "VCF",
      "params": [
        {
          "id": 0,
          "value": 0.0
        },
        {
          "id": 1,
          "value": 0.5
        },
        {
          "id": 2,
          "value": 0.234000027
        },
        {
          "id": 3,
          "value": 1.0
        },
        {
          "id": 4,
          "value": 0.0
        }
      ],
      "pos": [
        41,
        1
      ]
    },
    {
      "id": 5,
      "plugin": "Core",
      "version": "1.1.6",
      "model": "MIDIToCVInterface",
      "params": [],
      "data": {
        "channels": 4,
        "polyMode": 0,
        "clockDivision": 24,
        "lastPitch": 8192,
        "lastMod": 0,
        "midi": {
          "driver": 4,
          "deviceName": "Launchkey MIDI 0",
          "channel": -1
        }
      },
      "pos": [
        0,
        1
      ]
    },
    {
      "id": 6,
      "plugin": "Fundamental",
      "version": "1.3.1",
      "model": "ADSR",
      "params": [
        {
          "id": 0,
          "value": 0.853500247
        },
        {
          "id": 1,
          "value": 0.596000314
        },
        {
          "id": 2,
          "value": 0.5
        },
        {
          "id": 3,
          "value": 0.850999773
        }
      ],
      "pos": [
        52,
        1
      ]
    },
    {
      "id": 7,
      "plugin": "Fundamental",
      "version": "1.3.1",
      "model": "Scope",
      "params": [
        {
          "id": 0,
          "value": 0.0
        },
        {
          "id": 1,
          "value": 0.0
        },
        {
          "id": 2,
          "value": 0.0
        },
        {
          "id": 3,
          "value": 0.0
        },
        {
          "id": 4,
          "value": 14.0
        },
        {
          "id": 5,
          "value": 0.0
        },
        {
          "id": 6,
          "value": 0.0
        },
        {
          "id": 7,
          "value": 0.0
        }
      ],
      "leftModuleId": 2,
      "rightModuleId": 1,
      "data": {
        "lissajous": 0,
        "external": 0
      },
      "pos": [
        121,
        0
      ]
    },
    {
      "id": 25,
      "plugin": "Fundamental",
      "version": "1.3.1",
      "model": "VCO",
      "params": [
        {
          "id": 0,
          "value": 1.0
        },
        {
          "id": 1,
          "value": 1.0
        },
        {
          "id": 2,
          "value": -4.86000204
        },
        {
          "id": 3,
          "value": 0.0
        },
        {
          "id": 4,
          "value": 0.112500004
        },
        {
          "id": 5,
          "value": 0.5
        },
        {
          "id": 6,
          "value": 0.0
        }
      ],
      "pos": [
        28,
        0
      ]
    },
    {
      "id": 26,
      "plugin": "Fundamental",
      "version": "1.3.1",
      "model": "VCF",
      "params": [
        {
          "id": 0,
          "value": 0.473500103
        },
        {
          "id": 1,
          "value": 0.5
        },
        {
          "id": 2,
          "value": 0.234000027
        },
        {
          "id": 3,
          "value": 1.0
        },
        {
          "id": 4,
          "value": 0.0
        }
      ],
      "pos": [
        42,
        0
      ]
    },
    {
      "id": 27,
      "plugin": "Fundamental",
      "version": "1.3.1",
      "model": "ADSR",
      "params": [
        {
          "id": 0,
          "value": 0.853500187
        },
        {
          "id": 1,
          "value": 0.743000448
        },
        {
          "id": 2,
          "value": 0.762500048
        },
        {
          "id": 3,
          "value": 0.805999875
        }
      ],
      "pos": [
        53,
        0
      ]
    },
    {
      "id": 28,
      "plugin": "Fundamental",
      "version": "1.3.1",
      "model": "LFO",
      "params": [
        {
          "id": 0,
          "value": 1.0
        },
        {
          "id": 1,
          "value": 1.0
        },
        {
          "id": 2,
          "value": -2.05100131
        },
        {
          "id": 3,
          "value": 0.0
        },
        {
          "id": 4,
          "value": 0.0
        },
        {
          "id": 5,
          "value": 0.5
        },
        {
          "id": 6,
          "value": 0.0
        }
      ],
      "pos": [
        13,
        0
      ]
    },
    {
      "id": 29,
      "plugin": "Fundamental",
      "version": "1.3.1",
      "model": "VCO",
      "params": [
        {
          "id": 0,
          "value": 1.0
        },
        {
          "id": 1,
          "value": 1.0
        },
        {
          "id": 2,
          "value": -28.8360023
        },
        {
          "id": 3,
          "value": 0.0
        },
        {
          "id": 4,
          "value": 0.0
        },
        {
          "id": 5,
          "value": 0.5
        },
        {
          "id": 6,
          "value": 0.0
        }
      ],
      "pos": [
        28,
        2
      ]
    },
    {
      "id": 30,
      "plugin": "Fundamental",
      "version": "1.3.1",
      "model": "VCF",
      "params": [
        {
          "id": 0,
          "value": 0.0
        },
        {
          "id": 1,
          "value": 0.5
        },
        {
          "id": 2,
          "value": 0.234000027
        },
        {
          "id": 3,
          "value": 1.0
        },
        {
          "id": 4,
          "value": 0.0
        }
      ],
      "pos": [
        41,
        2
      ]
    },
    {
      "id": 31,
      "plugin": "Fundamental",
      "version": "1.3.1",
      "model": "ADSR",
      "params": [
        {
          "id": 0,
          "value": 0.901500523
        },
        {
          "id": 1,
          "value": 0.800000131
        },
        {
          "id": 2,
          "value": 0.5
        },
        {
          "id": 3,
          "value": 0.819500148
        }
      ],
      "pos": [
        53,
        2
      ]
    },
    {
      "id": 32,
      "plugin": "Fundamental",
      "version": "1.3.1",
      "model": "VCA-1",
      "params": [
        {
          "id": 0,
          "value": 1.0
        },
        {
          "id": 1,
          "value": 1.0
        }
      ],
      "leftModuleId": 34,
      "pos": [
        95,
        2
      ]
    },
    {
      "id": 34,
      "plugin": "Fundamental",
      "version": "1.3.1",
      "model": "LFO",
      "params": [
        {
          "id": 0,
          "value": 1.0
        },
        {
          "id": 1,
          "value": 1.0
        },
        {
          "id": 2,
          "value": -3.59900427
        },
        {
          "id": 3,
          "value": 0.119999997
        },
        {
          "id": 4,
          "value": 0.0
        },
        {
          "id": 5,
          "value": 0.5
        },
        {
          "id": 6,
          "value": 0.0
        }
      ],
      "leftModuleId": 35,
      "rightModuleId": 32,
      "pos": [
        85,
        2
      ]
    },
    {
      "id": 35,
      "plugin": "Fundamental",
      "version": "1.3.1",
      "model": "LFO",
      "params": [
        {
          "id": 0,
          "value": 1.0
        },
        {
          "id": 1,
          "value": 1.0
        },
        {
          "id": 2,
          "value": -2.11400557
        },
        {
          "id": 3,
          "value": 0.0
        },
        {
          "id": 4,
          "value": 0.0
        },
        {
          "id": 5,
          "value": 0.5
        },
        {
          "id": 6,
          "value": 0.0
        }
      ],
      "rightModuleId": 34,
      "pos": [
        75,
        2
      ]
    }
  ],
  "cables": [
    {
      "id": 48,
      "outputModuleId": 5,
      "outputId": 0,
      "inputModuleId": 3,
      "inputId": 0,
      "color": "#c91847"
    },
    {
      "id": 50,
      "outputModuleId": 2,
      "outputId": 0,
      "inputModuleId": 1,
      "inputId": 0,
      "color": "#0986ad"
    },
    {
      "id": 51,
      "outputModuleId": 2,
      "outputId": 0,
      "inputModuleId": 1,
      "inputId": 1,
      "color": "#c9b70e"
    },
    {
      "id": 52,
      "outputModuleId": 6,
      "outputId": 0,
      "inputModuleId": 4,
      "inputId": 0,
      "color": "#c91847"
    },
    {
      "id": 53,
      "outputModuleId": 5,
      "outputId": 1,
      "inputModuleId": 6,
      "inputId": 4,
      "color": "#c9b70e"
    },
    {
      "id": 55,
      "outputModuleId": 4,
      "outputId": 0,
      "inputModuleId": 2,
      "inputId": 1,
      "color": "#0986ad"
    },
    {
      "id": 56,
      "outputModuleId": 2,
      "outputId": 1,
      "inputModuleId": 7,
      "inputId": 0,
      "color": "#c9b70e"
    },
    {
      "id": 57,
      "outputModuleId": 5,
      "outputId": 6,
      "inputModuleId": 6,
      "inputId": 5,
      "color": "#c91847"
    },
    {
      "id": 58,
      "outputModuleId": 5,
      "outputId": 0,
      "inputModuleId": 25,
      "inputId": 0,
      "color": "#0c8e15"
    },
    {
      "id": 59,
      "outputModuleId": 5,
      "outputId": 1,
      "inputModuleId": 27,
      "inputId": 4,
      "color": "#c91847"
    },
    {
      "id": 61,
      "outputModuleId": 26,
      "outputId": 0,
      "inputModuleId": 2,
      "inputId": 2,
      "color": "#c9b70e"
    },
    {
      "id": 66,
      "outputModuleId": 28,
      "outputId": 2,
      "inputModuleId": 6,
      "inputId": 2,
      "color": "#0c8e15"
    },
    {
      "id": 65,
      "outputModuleId": 28,
      "outputId": 1,
      "inputModuleId": 27,
      "inputId": 2,
      "color": "#c9b70e"
    },
    {
      "id": 62,
      "outputModuleId": 25,
      "outputId": 2,
      "inputModuleId": 26,
      "inputId": 3,
      "color": "#0c8e15"
    },
    {
      "id": 67,
      "outputModuleId": 3,
      "outputId": 0,
      "inputModuleId": 4,
      "inputId": 3,
      "color": "#c91847"
    },
    {
      "id": 68,
      "outputModuleId": 5,
      "outputId": 0,
      "inputModuleId": 29,
      "inputId": 0,
      "color": "#0986ad"
    },
    {
      "id": 69,
      "outputModuleId": 5,
      "outputId": 1,
      "inputModuleId": 31,
      "inputId": 4,
      "color": "#c9b70e"
    },
    {
      "id": 73,
      "outputModuleId": 31,
      "outputId": 0,
      "inputModuleId": 30,
      "inputId": 0,
      "color": "#c9b70e"
    },
    {
      "id": 70,
      "outputModuleId": 29,
      "outputId": 3,
      "inputModuleId": 30,
      "inputId": 3,
      "color": "#0c8e15"
    },
    {
      "id": 71,
      "outputModuleId": 30,
      "outputId": 0,
      "inputModuleId": 2,
      "inputId": 3,
      "color": "#c91847"
    },
    {
      "id": 76,
      "outputModuleId": 34,
      "outputId": 0,
      "inputModuleId": 32,
      "inputId": 0,
      "color": "#c9b70e"
    },
    {
      "id": 60,
      "outputModuleId": 27,
      "outputId": 0,
      "inputModuleId": 2,
      "inputId": 6,
      "color": "#0986ad"
    },
    {
      "id": 78,
      "outputModuleId": 35,
      "outputId": 0,
      "inputModuleId": 34,
      "inputId": 0,
      "color": "#c91847"
    },
    {
      "id": 79,
      "outputModuleId": 6,
      "outputId": 0,
      "inputModuleId": 2,
      "inputId": 5,
      "color": "#0986ad"
    },
    {
      "id": 72,
      "outputModuleId": 31,
      "outputId": 0,
      "inputModuleId": 32,
      "inputId": 1,
      "color": "#0986ad"
    },
    {
      "id": 80,
      "outputModuleId": 32,
      "outputId": 0,
      "inputModuleId": 2,
      "inputId": 7,
      "color": "#c9b70e"
    }
  ]
}